<svg width="60" height="14" viewBox="0 0 60 14" fill="none" xmlns="http://www.w3.org/2000/svg">
<path d="M0.843281 13.4227H1.50928V7.66273H4.06528C6.99928 7.66273 8.67328 6.43873 8.67328 3.91873C8.67328 1.30873 6.96328 0.354729 3.99328 0.354729H0.843281V13.4227ZM1.50928 7.06873V0.948729H3.75928C6.58528 0.948729 7.95328 1.63273 7.95328 3.91873C7.95328 6.16873 6.62128 7.06873 3.83128 7.06873H1.50928ZM11.5111 13.4227H12.1591V6.87073C12.8971 4.99873 13.9411 4.33273 14.7871 4.33273C15.1651 4.33273 15.3271 4.36873 15.6331 4.49473L15.7951 3.90073C15.4711 3.73873 15.2011 3.70273 14.8771 3.70273C13.7431 3.70273 12.8251 4.56673 12.1951 5.71873H12.1591L12.0511 3.93673H11.5111V13.4227ZM20.8013 13.6567C23.0693 13.6567 25.0133 11.8387 25.0133 8.70673C25.0133 5.52073 23.0693 3.70273 20.8013 3.70273C18.5333 3.70273 16.5893 5.52073 16.5893 8.70673C16.5893 11.8387 18.5333 13.6567 20.8013 13.6567ZM20.8013 13.0627C18.7853 13.0627 17.2733 11.2987 17.2733 8.70673C17.2733 6.09673 18.7853 4.29673 20.8013 4.29673C22.8173 4.29673 24.3473 6.09673 24.3473 8.70673C24.3473 11.2987 22.8173 13.0627 20.8013 13.0627ZM31.3842 13.6567C32.6082 13.6567 33.6162 13.0987 34.4082 12.3967L34.0302 11.9287C33.3642 12.5587 32.4462 13.0627 31.4022 13.0627C29.2422 13.0627 27.8202 11.2987 27.8202 8.70673C27.8202 6.09673 29.3862 4.29673 31.4022 4.29673C32.3742 4.29673 33.1302 4.76473 33.7602 5.35873L34.1742 4.89073C33.5442 4.29673 32.6982 3.70273 31.4022 3.70273C29.1162 3.70273 27.1362 5.52073 27.1362 8.70673C27.1362 11.8387 28.9722 13.6567 31.3842 13.6567ZM40.0172 13.6567C41.4212 13.6567 42.2312 13.1887 42.9512 12.7567L42.6632 12.1987C41.9432 12.7207 41.1332 13.0627 40.0532 13.0627C37.8212 13.0627 36.3632 11.2267 36.3632 8.72473H43.3112C43.3472 8.47273 43.3472 8.27473 43.3472 8.07673C43.3472 5.26873 41.9612 3.70273 39.7652 3.70273C37.6592 3.70273 35.6792 5.61073 35.6792 8.70673C35.6792 11.8027 37.6232 13.6567 40.0172 13.6567ZM36.3632 8.13073C36.5612 5.73673 38.0732 4.29673 39.7652 4.29673C41.5472 4.29673 42.7172 5.55673 42.7172 8.13073H36.3632ZM48.2314 13.6567C50.2294 13.6567 51.3274 12.4327 51.3274 11.0287C51.3274 9.17473 49.6894 8.70673 48.1774 8.13073C47.0434 7.69873 45.9634 7.26673 45.9634 6.13273C45.9634 5.19673 46.6834 4.29673 48.2494 4.29673C49.2394 4.29673 49.9054 4.69273 50.5354 5.16073L50.9134 4.67473C50.2474 4.09873 49.2394 3.70273 48.2854 3.70273C46.3234 3.70273 45.2974 4.85473 45.2974 6.16873C45.2974 7.80673 46.8454 8.34673 48.2854 8.86873C49.4014 9.26473 50.6614 9.82273 50.6614 11.0647C50.6614 12.1447 49.8514 13.0627 48.2674 13.0627C46.8634 13.0627 45.9814 12.5227 45.1894 11.8387L44.7754 12.3607C45.6214 13.0627 46.8094 13.6567 48.2314 13.6567ZM56.1767 13.6567C58.1747 13.6567 59.2727 12.4327 59.2727 11.0287C59.2727 9.17473 57.6347 8.70673 56.1227 8.13073C54.9887 7.69873 53.9087 7.26673 53.9087 6.13273C53.9087 5.19673 54.6287 4.29673 56.1947 4.29673C57.1847 4.29673 57.8507 4.69273 58.4807 5.16073L58.8587 4.67473C58.1927 4.09873 57.1847 3.70273 56.2307 3.70273C54.2687 3.70273 53.2427 4.85473 53.2427 6.16873C53.2427 7.80673 54.7907 8.34673 56.2307 8.86873C57.3467 9.26473 58.6067 9.82273 58.6067 11.0647C58.6067 12.1447 57.7967 13.0627 56.2127 13.0627C54.8087 13.0627 53.9267 12.5227 53.1347 11.8387L52.7207 12.3607C53.5667 13.0627 54.7547 13.6567 56.1767 13.6567Z" fill="white"/>
</svg>
